<svg width="301" height="283" viewBox="0 0 301 283" fill="none" xmlns="http://www.w3.org/2000/svg">
<g opacity="0.5">
<path d="M150.355 0.278926C147.063 0.629725 141.585 1.82244 138.41 2.85146C120.07 8.88521 105.704 21.9116 100.179 37.5572C97.0516 46.3272 95.9936 56.6173 96.2287 75.5605C96.4403 91.4634 96.7225 92.9368 100.978 99.181C102.789 101.824 104.388 104.794 104.388 105.495C104.388 106.15 105.728 108.161 107.327 109.939C109.795 112.675 111.065 115.645 112.382 121.726C113.393 126.426 114.333 129.28 115.932 132.507C117.931 136.553 118.683 140.108 118.425 144.2C118.189 147.708 117.578 148.831 115.344 149.907C114.545 150.281 112.899 151.076 111.676 151.661C108.784 153.017 105.281 155.683 101.449 159.378C95.8055 164.827 90.4211 167.821 79.8169 171.376C72.0107 173.995 64.3456 175.959 47.6046 179.631C34.1084 182.601 26.7019 184.542 23.2456 186.039C21.6937 186.694 20.8708 187.98 19.1544 192.353C16.8501 198.2 14.6635 206.268 12.6884 216.138C11.1601 223.645 10.5253 226.334 9.77285 228.392C8.64424 231.456 5.54058 245.792 2.81312 260.666C0.649958 272.453 0.179706 275.657 0.0621431 279.422L-0.0554199 283H150.472H301L300.859 282.111C300.788 281.644 300.177 277.083 299.542 272.008C296.18 245.839 294.134 233.748 291.854 226.755C291.524 225.726 290.584 223.458 289.784 221.727C287.551 216.956 286.681 214.15 286.399 210.782C286.046 206.432 285.176 203.696 283.154 200.562C281.038 197.335 278.24 194.856 273.302 191.839C269.14 189.313 267.542 188.541 263.803 187.278C262.063 186.694 254.445 183.841 246.874 180.964C232.86 175.609 226.583 173.317 222.75 172.147C221.551 171.773 220.07 171.212 219.435 170.908C217.06 169.715 213.933 166.885 210.712 163.05C205.656 157.016 203.211 154.748 200.343 153.391C193.547 150.164 191.008 141.417 193.618 130.402C194.3 127.572 194.7 126.403 196.369 122.451C198.132 118.311 199.284 114.85 199.708 112.394C200.131 109.962 201.26 107.553 203.376 104.56C206.62 99.9294 207.443 98.6197 208.525 96.5383C212.31 89.1248 214.779 78.7411 214.003 73.4557C213.721 71.4211 213.321 70.4856 212.428 69.6437C211.182 68.4978 210.712 64.0075 210.429 49.9521C210.171 37.3 209.818 33.5815 208.501 29.4888C207.326 25.8171 204.927 22.1454 201.495 18.731C196.416 13.6561 190.35 10.5457 182.567 9.02553C176.289 7.80942 171.892 6.05543 168.812 3.50628C165.591 0.863592 163.451 0.255539 156.821 0.138606C154.422 0.0918327 151.53 0.161993 150.355 0.278926Z" fill="black"/>
</g>
</svg>
