<svg width="749" height="735" viewBox="0 0 749 735" fill="none" xmlns="http://www.w3.org/2000/svg">
<rect width="749" height="735" rx="16" fill="#FADDD4"/>
<rect width="749" height="735" rx="16" fill="#181818" fill-opacity="0.6"/>
<g opacity="0.6">
<path d="M507.448 553.076H530.534V569.227H507.448V553.076Z" fill="#FFD852"/>
<path d="M491.925 614.746V677.514H513.021C513.021 635.302 516.603 629.796 516.603 629.796H520.982C520.982 629.796 524.564 635.302 524.564 677.514H545.66V614.746H491.925Z" fill="#231F20"/>
<path d="M524.564 675.679C528.146 671.642 542.077 671.642 545.66 675.679V683.388H524.564V675.679ZM513.419 675.679C509.837 671.642 495.906 671.642 492.323 675.679V683.388H513.419V675.679ZM548.048 561.522H530.136C530.136 564.826 524.962 567.763 518.594 567.763C512.225 567.763 507.051 565.193 507.051 561.522H489.537L492.323 614.747H546.058L548.048 561.522Z" fill="#428BC1"/>
<path d="M573.52 616.212L542.872 569.962C538.095 562.62 548.444 558.216 553.221 565.19L583.869 611.44L573.52 616.212Z" fill="#428BC1"/>
<path d="M573.521 616.213C579.492 625.023 581.88 624.289 584.666 623.187C587.453 622.086 589.443 620.251 583.87 611.441L573.521 616.213Z" fill="#FFD852"/>
<path d="M472.422 618.784L483.169 566.661C484.761 558.585 496.702 560.421 494.712 568.496L483.965 620.619L472.422 618.784Z" fill="#428BC1"/>
<path d="M472.422 618.781C470.431 628.691 472.82 629.425 476.004 630.16C479.188 630.527 481.974 630.527 483.965 620.616L472.422 618.781ZM634.819 553.076H657.905V569.227H634.819V553.076Z" fill="#FFD852"/>
<path d="M673.428 614.746V677.514H652.333C652.333 635.302 648.75 629.796 648.75 629.796H644.372C644.372 629.796 640.79 635.302 640.79 677.514H619.694V614.746H673.428Z" fill="#231F20"/>
<path d="M640.79 675.672C637.207 671.634 623.276 671.634 619.694 675.672V683.38H640.79V675.672ZM651.935 675.672C655.517 671.634 669.448 671.634 673.03 675.672V683.38H651.935V675.672Z" fill="#428BC1"/>
<path d="M617.306 561.522H635.218C635.218 564.826 640.392 567.763 646.761 567.763C653.129 567.763 658.304 565.193 658.304 561.522H676.215L673.827 614.747H619.694L617.306 561.522Z" fill="#6ADBC6"/>
<path d="M591.832 616.212L622.48 569.962C627.257 562.62 616.908 558.216 612.131 565.19L581.483 611.44L591.832 616.212Z" fill="#6ADBC6"/>
<path d="M591.831 616.213C585.86 625.023 583.472 624.289 580.686 623.187C577.9 622.086 575.909 620.251 581.482 611.441L591.831 616.213Z" fill="#FFD852"/>
<path d="M692.931 618.784L682.184 566.661C680.592 558.585 668.651 560.421 670.641 568.496L681.786 620.252L692.931 618.784Z" fill="#6ADBC6"/>
<path d="M692.933 618.783C694.923 628.694 692.535 629.428 689.35 630.162C686.166 630.529 683.38 630.529 681.39 620.619L692.933 618.783Z" fill="#FFD852"/>
<path d="M470.033 510.497L475.208 518.939H562.775L566.755 509.763C566.755 477.094 558.397 463.513 519.787 463.146C479.984 462.778 470.033 477.094 470.033 510.497Z" fill="#FFB300"/>
<path d="M562.775 509.764C562.377 511.6 561.979 513.435 561.581 514.536C560.387 516.372 558.397 517.473 558.397 517.473C558.397 517.473 558.795 513.802 558.795 508.663C556.406 478.564 554.814 493.247 518.991 493.247C483.168 493.247 481.576 478.931 479.188 508.663C478.79 513.802 479.586 517.473 479.586 517.473C479.586 517.473 477.198 516.372 476.402 514.536C476.004 513.435 475.606 511.6 475.208 509.764C472.023 509.03 467.645 509.764 467.645 518.574C467.645 524.08 470.033 528.852 477.198 529.219C479.984 547.939 507.05 560.419 518.991 560.419C531.33 560.419 558.397 547.939 560.785 529.219C568.347 528.852 570.338 524.08 570.338 518.574C570.338 509.764 565.959 509.03 562.775 509.764Z" fill="#FFD852"/>
<path d="M500.681 526.65C504.858 526.65 508.244 523.527 508.244 519.675C508.244 515.824 504.858 512.701 500.681 512.701C496.505 512.701 493.119 515.824 493.119 519.675C493.119 523.527 496.505 526.65 500.681 526.65Z" fill="#937237"/>
<path d="M537.301 526.65C541.478 526.65 544.864 523.527 544.864 519.675C544.864 515.824 541.478 512.701 537.301 512.701C533.125 512.701 529.739 515.824 529.739 519.675C529.739 523.527 533.125 526.65 537.301 526.65Z" fill="#937237"/>
<path d="M530.932 540.597C523.37 546.103 514.613 546.103 507.05 540.597C506.254 539.863 505.458 540.964 505.856 542.065C508.245 546.103 513.021 549.407 518.991 549.407C524.962 549.407 529.738 545.736 532.127 542.065C532.525 540.964 531.729 539.863 530.932 540.597Z" fill="#937237"/>
<path d="M597.802 510.497L602.977 518.939H690.544L694.524 509.763C694.126 477.094 685.768 463.513 646.76 463.146C607.753 462.778 597.802 477.094 597.802 510.497Z" fill="#FFB300"/>
<path d="M690.544 509.764C690.146 511.6 689.748 513.435 689.35 514.536C688.156 516.372 686.166 517.473 686.166 517.473C686.166 517.473 686.564 513.802 686.564 508.663C684.175 478.564 682.583 493.247 646.76 493.247C610.937 493.247 609.345 478.931 606.957 508.663C606.559 513.802 607.355 517.473 607.355 517.473C607.355 517.473 605.365 516.372 604.171 514.536C603.773 513.435 603.375 511.6 602.977 509.764C599.792 509.03 595.414 509.764 595.414 518.574C595.414 524.08 597.802 528.852 604.967 529.219C607.753 547.939 634.819 560.419 646.76 560.419C659.099 560.419 686.166 547.939 688.554 529.219C696.116 528.852 698.107 524.08 698.107 518.574C698.107 509.764 693.728 509.03 690.544 509.764Z" fill="#FFD852"/>
<path d="M635.614 519.675C635.614 523.346 632.43 526.65 628.051 526.65C624.071 526.65 620.489 523.713 620.489 519.675C620.489 516.005 623.673 512.701 628.051 512.701C632.43 512.701 635.614 515.638 635.614 519.675Z" fill="#937237"/>
<path d="M664.671 526.65C668.848 526.65 672.234 523.527 672.234 519.675C672.234 515.824 668.848 512.701 664.671 512.701C660.494 512.701 657.108 515.824 657.108 519.675C657.108 523.527 660.494 526.65 664.671 526.65Z" fill="#937237"/>
<path d="M658.302 540.597C650.739 546.103 641.982 546.103 634.42 540.597C633.624 539.863 632.827 540.964 633.226 542.065C635.614 546.103 640.39 549.407 646.361 549.407C652.331 549.407 657.107 545.736 659.496 542.065C660.292 540.964 659.496 539.863 658.302 540.597Z" fill="#937237"/>
</g>
</svg>
