<svg width="749" height="735" viewBox="0 0 749 735" fill="none" xmlns="http://www.w3.org/2000/svg">
<rect width="749" height="735" rx="16" fill="#E8EDF6"/>
<rect width="749" height="735" rx="16" fill="#181818" fill-opacity="0.7"/>
<g opacity="0.6">
<path d="M676.881 499.482L494.567 510.689C491.172 510.905 480.513 516.622 479.053 529.023L466.862 632.904C466.228 638.323 466.712 650.983 478.208 652.956L655.621 683.351C656.742 683.542 657.883 683.638 659.008 683.638C663.299 683.638 678.755 680.457 680.361 666.66L696.965 525.215C698.525 511.992 689.813 498.67 676.881 499.482ZM495.051 517.026L677.345 505.815C679.719 505.666 681.943 506.18 683.879 507.303L560.729 610.184L491.633 518.563C492.781 517.639 493.972 517.093 495.051 517.026ZM473.807 633.573L485.998 529.696C486.221 527.819 486.732 525.959 487.481 524.259L532.443 582.977L473.887 638.465C473.645 636.896 473.611 635.235 473.807 633.573ZM656.915 677.106L479.503 646.715C478.527 646.548 477.559 645.939 476.695 644.983L532.808 591.804L536.442 588.358L559.342 619.784L595.056 590.997L606.56 605.144L664.278 676.111C661.951 677.184 659.416 677.538 656.915 677.106ZM690.025 521.365L673.42 662.81C673.017 666.253 671.665 669.441 669.594 671.956L600.26 586.711L688.446 512.113C689.856 514.759 690.42 517.982 690.025 521.365Z" fill="#BDBDBD"/>
</g>
</svg>
