<svg width="24" height="24" viewBox="0 0 24 24" fill="none" xmlns="http://www.w3.org/2000/svg">
<mask id="mask0_523_2406" style="mask-type:alpha" maskUnits="userSpaceOnUse" x="0" y="0" width="24" height="24">
<rect width="24" height="24" fill="#D9D9D9"/>
</mask>
<g mask="url(#mask0_523_2406)">
<path d="M11 17.4045H13V13.4008H17V11.399H13V7.39525H11V11.399H7V13.4008H11V17.4045ZM12 22.4091C10.6167 22.4091 9.31667 22.1462 8.1 21.6204C6.88333 21.0953 5.825 20.3823 4.925 19.4814C4.025 18.5806 3.31267 17.5213 2.788 16.3035C2.26267 15.0857 2 13.7845 2 12.3999C2 11.0153 2.26267 9.71407 2.788 8.49627C3.31267 7.27848 4.025 6.21917 4.925 5.31833C5.825 4.4175 6.88333 3.70417 8.1 3.17835C9.31667 2.6532 10.6167 2.39062 12 2.39062C13.3833 2.39062 14.6833 2.6532 15.9 3.17835C17.1167 3.70417 18.175 4.4175 19.075 5.31833C19.975 6.21917 20.6873 7.27848 21.212 8.49627C21.7373 9.71407 22 11.0153 22 12.3999C22 13.7845 21.7373 15.0857 21.212 16.3035C20.6873 17.5213 19.975 18.5806 19.075 19.4814C18.175 20.3823 17.1167 21.0953 15.9 21.6204C14.6833 22.1462 13.3833 22.4091 12 22.4091ZM12 20.4073C14.2333 20.4073 16.125 19.6316 17.675 18.0801C19.225 16.5287 20 14.6353 20 12.3999C20 10.1645 19.225 8.27106 17.675 6.71963C16.125 5.16819 14.2333 4.39248 12 4.39248C9.76667 4.39248 7.875 5.16819 6.325 6.71963C4.775 8.27106 4 10.1645 4 12.3999C4 14.6353 4.775 16.5287 6.325 18.0801C7.875 19.6316 9.76667 20.4073 12 20.4073Z" fill="#DADADA"/>
</g>
</svg>
