<svg width="18" height="18" viewBox="0 0 18 18" fill="none" xmlns="http://www.w3.org/2000/svg">
<mask id="mask0_534_69" style="mask-type:alpha" maskUnits="userSpaceOnUse" x="0" y="0" width="18" height="18">
<rect width="18" height="18" fill="#D9D9D9"/>
</mask>
<g mask="url(#mask0_534_69)">
<path d="M4.87549 15.9741C3.73799 15.9741 2.76624 15.58 1.96024 14.7918C1.15374 14.0036 0.750488 13.0402 0.750488 11.9016C0.750488 10.9257 1.04424 10.0562 1.63174 9.29295C2.21924 8.52974 2.98799 8.04179 3.93799 7.82909C4.15049 6.92826 4.68174 6.07122 5.53174 5.25796C6.38174 4.44471 7.28799 4.03809 8.25049 4.03809C8.66299 4.03809 9.01624 4.18497 9.31024 4.47874C9.60374 4.77302 9.75049 5.12659 9.75049 5.53947V10.0812L10.9505 8.9176L12.0005 9.96857L9.00049 12.9713L6.00049 9.96857L7.05049 8.9176L8.25049 10.0812V5.53947C7.30049 5.71464 6.56299 6.17431 6.03799 6.9185C5.51299 7.66319 5.25049 8.42965 5.25049 9.21788H4.87549C4.15049 9.21788 3.53174 9.47436 3.01924 9.98734C2.50674 10.5003 2.25049 11.1196 2.25049 11.8453C2.25049 12.571 2.50674 13.1903 3.01924 13.7033C3.53174 14.2163 4.15049 14.4727 4.87549 14.4727H13.8755C14.4005 14.4727 14.8442 14.2913 15.2067 13.9285C15.5692 13.5656 15.7505 13.1215 15.7505 12.596C15.7505 12.0705 15.5692 11.6264 15.2067 11.2635C14.8442 10.9007 14.4005 10.7193 13.8755 10.7193H12.7505V9.21788C12.7505 8.61732 12.613 8.0573 12.338 7.53782C12.063 7.01884 11.7005 6.57794 11.2505 6.2151V4.46974C12.1755 4.90764 12.9067 5.55524 13.4442 6.41253C13.9817 7.26933 14.2505 8.20444 14.2505 9.21788C15.113 9.31797 15.8287 9.69006 16.3977 10.3342C16.9662 10.9788 17.2505 11.7327 17.2505 12.596C17.2505 13.5344 16.9225 14.3321 16.2665 14.9892C15.61 15.6458 14.813 15.9741 13.8755 15.9741H4.87549Z" fill="white"/>
</g>
</svg>
