<svg width="24" height="24" viewBox="0 0 24 24" fill="none" xmlns="http://www.w3.org/2000/svg">
<mask id="mask0_908_5" style="mask-type:alpha" maskUnits="userSpaceOnUse" x="0" y="0" width="24" height="24">
<rect width="24" height="24" fill="#D9D9D9"/>
</mask>
<g mask="url(#mask0_908_5)">
<path d="M7.00027 21C6.45027 21 5.97961 20.8043 5.58827 20.413C5.19627 20.021 5.00027 19.55 5.00027 19V6H4.00027V4H9.00027V3H15.0003V4H20.0003V6H19.0003V19C19.0003 19.55 18.8046 20.021 18.4133 20.413C18.0213 20.8043 17.5503 21 17.0003 21H7.00027ZM17.0003 6H7.00027V19H17.0003V6ZM9.00027 17H11.0003V8H9.00027V17ZM13.0003 17H15.0003V8H13.0003V17Z" fill="#1C1B1F"/>
</g>
</svg>
