<svg width="28" height="28" viewBox="0 0 28 28" fill="none" xmlns="http://www.w3.org/2000/svg">
<mask id="mask0_532_15" style="mask-type:alpha" maskUnits="userSpaceOnUse" x="0" y="0" width="28" height="28">
<rect width="28" height="28" fill="#D9D9D9"/>
</mask>
<g mask="url(#mask0_532_15)">
<path d="M11.0833 19.5651L19.2499 14.3103L11.0833 9.05542V19.5651ZM13.9999 25.9878C12.386 25.9878 10.8694 25.681 9.44992 25.0676C8.03048 24.4549 6.79575 23.6231 5.74575 22.5721C4.69575 21.5211 3.8647 20.2853 3.25259 18.8645C2.6397 17.4437 2.33325 15.9257 2.33325 14.3103C2.33325 12.6949 2.6397 11.1768 3.25259 9.75607C3.8647 8.33531 4.69575 7.09944 5.74575 6.04847C6.79575 4.9975 8.03048 4.16529 9.44992 3.55183C10.8694 2.93915 12.386 2.63281 13.9999 2.63281C15.6138 2.63281 17.1305 2.93915 18.5499 3.55183C19.9694 4.16529 21.2041 4.9975 22.2541 6.04847C23.3041 7.09944 24.1351 8.33531 24.7473 9.75607C25.3601 11.1768 25.6666 12.6949 25.6666 14.3103C25.6666 15.9257 25.3601 17.4437 24.7473 18.8645C24.1351 20.2853 23.3041 21.5211 22.2541 22.5721C21.2041 23.6231 19.9694 24.4549 18.5499 25.0676C17.1305 25.681 15.6138 25.9878 13.9999 25.9878ZM13.9999 23.6523C16.6055 23.6523 18.8124 22.7473 20.6208 20.9372C22.4291 19.1272 23.3333 16.9183 23.3333 14.3103C23.3333 11.7023 22.4291 9.49333 20.6208 7.68332C18.8124 5.87331 16.6055 4.96831 13.9999 4.96831C11.3944 4.96831 9.18742 5.87331 7.37909 7.68332C5.57075 9.49333 4.66659 11.7023 4.66659 14.3103C4.66659 16.9183 5.57075 19.1272 7.37909 20.9372C9.18742 22.7473 11.3944 23.6523 13.9999 23.6523Z" fill="#1C1B1F"/>
</g>
</svg>
