<svg width="20" height="20" viewBox="0 0 20 20" fill="none" xmlns="http://www.w3.org/2000/svg">
<mask id="mask0_539_14" style="mask-type:alpha" maskUnits="userSpaceOnUse" x="0" y="0" width="20" height="20">
<rect width="20" height="20" fill="#D9D9D9"/>
</mask>
<g mask="url(#mask0_539_14)">
<path d="M16.229 16.7913L11.0207 11.583C10.604 11.9302 10.1248 12.2011 9.58317 12.3955C9.0415 12.59 8.49984 12.6872 7.95817 12.6872C6.61095 12.6872 5.47567 12.2252 4.55234 11.3013C3.62845 10.378 3.1665 9.24967 3.1665 7.91634C3.1665 6.58301 3.62845 5.4544 4.55234 4.53051C5.47567 3.60717 6.604 3.14551 7.93734 3.14551C9.27067 3.14551 10.4026 3.60717 11.3332 4.53051C12.2637 5.4544 12.729 6.58301 12.729 7.91634C12.729 8.49967 12.6248 9.06217 12.4165 9.60384C12.2082 10.1455 11.9373 10.6038 11.604 10.9788L16.8332 16.208L16.229 16.7913ZM7.95817 11.8538C9.05539 11.8538 9.98595 11.4755 10.7498 10.7188C11.5137 9.96162 11.8957 9.02745 11.8957 7.91634C11.8957 6.80523 11.5137 5.87106 10.7498 5.11384C9.98595 4.35717 9.05539 3.97884 7.95817 3.97884C6.84706 3.97884 5.90956 4.35717 5.14567 5.11384C4.38178 5.87106 3.99984 6.80523 3.99984 7.91634C3.99984 9.02745 4.38178 9.96162 5.14567 10.7188C5.90956 11.4755 6.84706 11.8538 7.95817 11.8538Z" fill="#626262"/>
</g>
</svg>
