<svg width="28" height="28" viewBox="0 0 28 28" fill="none" xmlns="http://www.w3.org/2000/svg">
<mask id="mask0_551_1067" style="mask-type:alpha" maskUnits="userSpaceOnUse" x="0" y="0" width="28" height="28">
<rect width="28" height="28" fill="#D9D9D9"/>
</mask>
<g mask="url(#mask0_551_1067)">
<path d="M4.66683 23.3337C4.02516 23.3337 3.47605 23.1054 3.0195 22.6488C2.56216 22.1915 2.3335 21.642 2.3335 21.0003V7.00033C2.3335 6.35866 2.56216 5.80955 3.0195 5.35299C3.47605 4.89566 4.02516 4.66699 4.66683 4.66699H18.6668C19.3085 4.66699 19.858 4.89566 20.3153 5.35299C20.7719 5.80955 21.0002 6.35866 21.0002 7.00033V12.2503L25.6668 7.58366V20.417L21.0002 15.7503V21.0003C21.0002 21.642 20.7719 22.1915 20.3153 22.6488C19.858 23.1054 19.3085 23.3337 18.6668 23.3337H4.66683ZM4.66683 21.0003H18.6668V7.00033H4.66683V21.0003Z" fill="white"/>
</g>
</svg>
