<svg width="455" height="355" viewBox="0 0 455 355" fill="none" xmlns="http://www.w3.org/2000/svg">
<g opacity="0.5">
<path d="M227.364 34.1758C223.548 34.5739 217.197 35.9273 213.517 37.095C192.257 43.942 175.602 58.7239 169.197 76.4782C165.572 86.4301 164.345 98.1071 164.618 119.603C164.863 137.649 165.19 139.321 170.124 146.407C172.223 149.406 174.076 152.776 174.076 153.573C174.076 154.316 175.63 156.598 177.483 158.615C180.345 161.72 181.817 165.09 183.343 171.99C184.516 177.325 185.606 180.562 187.459 184.225C189.776 188.816 190.648 192.85 190.349 197.494C190.076 201.475 189.367 202.748 186.778 203.969C185.851 204.394 183.943 205.296 182.526 205.96C179.173 207.499 175.112 210.524 170.669 214.717C164.127 220.901 157.885 224.298 145.592 228.332C136.543 231.304 127.657 233.533 108.25 237.7C92.6046 241.07 84.0186 243.273 80.0118 244.971C78.2128 245.714 77.2588 247.174 75.2691 252.137C72.5979 258.771 70.0629 267.927 67.7734 279.126C66.0016 287.645 65.2657 290.697 64.3935 293.033C63.0851 296.509 59.4872 312.777 56.3254 329.656C53.8177 343.031 53.2726 346.667 53.1363 350.94L53 355H227.5H402L401.836 353.992C401.755 353.461 401.046 348.286 400.31 342.527C396.412 312.83 394.041 299.11 391.397 291.175C391.015 290.007 389.925 287.433 388.998 285.469C386.409 280.055 385.4 276.871 385.073 273.049C384.664 268.113 383.656 265.008 381.312 261.452C378.859 257.789 375.615 254.976 369.891 251.553C365.067 248.687 363.213 247.811 358.879 246.378C356.862 245.714 348.031 242.477 339.254 239.212C323.009 233.135 315.731 230.534 311.288 229.207C309.898 228.783 308.181 228.146 307.445 227.801C304.692 226.447 301.067 223.236 297.333 218.884C291.472 212.037 288.638 209.463 285.312 207.923C277.435 204.261 274.491 194.336 277.517 181.836C278.307 178.625 278.771 177.298 280.706 172.813C282.75 168.116 284.086 164.188 284.576 161.401C285.067 158.641 286.375 155.908 288.828 152.511C292.59 147.256 293.544 145.77 294.798 143.408C299.186 134.996 302.048 123.213 301.149 117.215C300.822 114.906 300.358 113.844 299.322 112.889C297.878 111.589 297.333 106.493 297.006 90.5436C296.706 76.1863 296.297 71.9666 294.771 67.3224C293.408 63.1558 290.627 58.9893 286.648 55.1147C280.76 49.3558 273.728 45.8262 264.706 44.1012C257.428 42.7212 252.331 40.7308 248.761 37.8381C245.026 34.8392 242.546 34.1492 234.859 34.0165C232.079 33.9635 228.727 34.0431 227.364 34.1758Z" fill="black"/>
</g>
</svg>
