<svg width="483" height="466" viewBox="0 0 483 466" fill="none" xmlns="http://www.w3.org/2000/svg">
<g clip-path="url(#clip0_881_5)">
<path d="M241.491 6.32502e-06C273.062 -0.00882046 303.804 9.22113 329.206 26.3351C354.607 43.4491 373.331 67.5458 382.628 95.0885C391.925 122.631 391.306 152.169 380.862 179.367C370.418 206.565 350.698 229.99 324.598 246.205C369.901 261.373 409.193 288.573 437.418 324.301C465.644 360.03 481.509 402.652 482.974 446.683C483.111 449.127 482.711 451.571 481.8 453.872C480.888 456.173 479.482 458.285 477.664 460.084C475.846 461.883 473.653 463.332 471.214 464.346C468.775 465.361 466.138 465.92 463.458 465.992C460.779 466.064 458.11 465.646 455.61 464.764C453.11 463.882 450.827 462.553 448.897 460.855C446.967 459.157 445.428 457.124 444.37 454.875C443.312 452.627 442.756 450.208 442.736 447.761C441.137 400.011 419.235 354.706 381.672 321.446C344.108 288.186 293.835 269.585 241.505 269.585C189.175 269.585 138.902 288.186 101.338 321.446C63.7743 354.706 41.8725 400.011 40.274 447.761C40.1138 452.635 37.8391 457.252 33.9503 460.595C30.0614 463.939 24.877 465.735 19.5376 465.588C14.1981 465.442 9.14097 463.366 5.47866 459.815C1.81636 456.265 -0.151116 451.533 0.00906797 446.658C1.47869 402.632 17.347 360.015 45.5718 324.291C73.7967 288.567 113.086 261.372 158.385 246.205C132.284 229.99 112.565 206.565 102.121 179.367C91.6769 152.169 91.0579 122.631 100.355 95.0885C109.652 67.5458 128.375 43.4491 153.777 26.3351C179.179 9.22113 209.921 -0.00882046 241.491 6.32502e-06ZM134.118 134.779C134.118 160.776 145.431 185.708 165.567 204.091C185.703 222.473 213.014 232.8 241.491 232.8C269.969 232.8 297.279 222.473 317.416 204.091C337.552 185.708 348.865 160.776 348.865 134.779C348.865 108.782 337.552 83.8502 317.416 65.4677C297.279 47.0852 269.969 36.758 241.491 36.758C213.014 36.758 185.703 47.0852 165.567 65.4677C145.431 83.8502 134.118 108.782 134.118 134.779Z" fill="#CCCCCC"/>
</g>
<defs>
<clipPath id="clip0_881_5">
<rect width="483" height="466" fill="white"/>
</clipPath>
</defs>
</svg>
