<svg width="279" height="312" viewBox="0 0 279 312" fill="none" xmlns="http://www.w3.org/2000/svg">
<g clip-path="url(#clip0_881_5)">
<path d="M139.495 4.23478e-06C157.731 -0.00590554 175.489 6.1738 190.162 17.6321C204.835 29.0904 215.651 45.2238 221.021 63.6644C226.391 82.1049 226.034 101.881 220.001 120.091C213.968 138.301 202.577 153.985 187.501 164.841C213.669 174.997 236.366 193.207 252.67 217.129C268.974 241.05 278.139 269.587 278.985 299.066C279.064 300.703 278.833 302.339 278.307 303.88C277.78 305.421 276.968 306.835 275.918 308.039C274.868 309.243 273.601 310.213 272.192 310.893C270.783 311.572 269.26 311.947 267.712 311.995C266.164 312.043 264.623 311.763 263.178 311.173C261.734 310.582 260.416 309.692 259.301 308.555C258.186 307.418 257.297 306.057 256.686 304.552C256.074 303.046 255.753 301.427 255.742 299.788C254.818 267.819 242.167 237.486 220.469 215.217C198.771 192.949 169.731 180.495 139.503 180.495C109.275 180.495 80.235 192.949 58.5368 215.217C36.8385 237.486 24.1872 267.819 23.2639 299.788C23.1713 303.052 21.8574 306.143 19.611 308.381C17.3647 310.62 14.37 311.822 11.2857 311.724C8.20139 311.627 5.28019 310.236 3.16469 307.859C1.0492 305.482 -0.0872905 302.314 0.00523802 299.05C0.854149 269.573 10.0203 241.04 26.3241 217.122C42.6279 193.204 65.3232 174.996 91.4892 164.841C76.4128 153.985 65.0221 138.301 58.9892 120.091C52.9562 101.881 52.5987 82.1049 57.969 63.6644C63.3394 45.2238 74.1548 29.0904 88.8278 17.6321C103.501 6.1738 121.259 -0.00590554 139.495 4.23478e-06ZM77.472 90.2384C77.472 107.644 84.0066 124.337 95.6381 136.644C107.27 148.952 123.046 155.866 139.495 155.866C155.945 155.866 171.72 148.952 183.352 136.644C194.984 124.337 201.518 107.644 201.518 90.2384C201.518 72.8328 194.984 56.1401 183.352 43.8324C171.72 31.5248 155.945 24.6105 139.495 24.6105C123.046 24.6105 107.27 31.5248 95.6381 43.8324C84.0066 56.1401 77.472 72.8328 77.472 90.2384Z" fill="#CCCCCC"/>
</g>
<defs>
<clipPath id="clip0_881_5">
<rect width="279" height="312" fill="white"/>
</clipPath>
</defs>
</svg>
