<svg width="862" height="884" viewBox="0 0 862 884" fill="none" xmlns="http://www.w3.org/2000/svg">
<g clip-path="url(#clip0_881_5)">
<path d="M430.985 1.19985e-05C487.328 -0.0167324 542.192 17.4924 587.526 49.9576C632.86 82.4228 666.276 128.134 682.868 180.382C699.46 232.631 698.356 288.664 679.716 340.258C661.077 391.853 625.884 436.29 579.304 467.049C660.154 495.824 730.278 547.421 780.651 615.198C831.024 682.975 859.34 763.83 861.953 847.355C862.197 851.991 861.485 856.628 859.858 860.994C858.231 865.359 855.721 869.365 852.477 872.777C849.233 876.189 845.319 878.938 840.966 880.863C836.612 882.787 831.906 883.849 827.124 883.985C822.342 884.121 817.58 883.329 813.118 881.656C808.655 879.982 804.582 877.461 801.137 874.24C797.693 871.018 794.945 867.162 793.057 862.896C791.169 858.631 790.177 854.042 790.141 849.4C787.288 758.819 748.201 672.876 681.162 609.782C614.123 546.688 524.4 511.402 431.009 511.402C337.617 511.402 247.895 546.688 180.856 609.782C113.817 672.876 74.729 758.819 71.8762 849.4C71.5903 858.647 67.5307 867.405 60.5904 873.747C53.65 880.089 44.3975 883.497 34.8683 883.219C25.3391 882.942 16.3137 879.003 9.77765 872.268C3.24162 865.533 -0.269693 856.555 0.0161834 847.308C2.63898 763.791 30.9589 682.946 81.3311 615.179C131.703 547.411 201.823 495.821 282.666 467.049C236.085 436.29 200.893 391.853 182.253 340.258C163.614 288.664 162.509 232.631 179.101 180.382C195.694 128.134 229.109 82.4228 274.443 49.9576C319.777 17.4924 374.642 -0.0167324 430.985 1.19985e-05ZM239.358 255.675C239.358 304.991 259.547 352.287 295.484 387.159C331.421 422.031 380.162 441.621 430.985 441.621C481.807 441.621 530.548 422.031 566.485 387.159C602.422 352.287 622.611 304.991 622.611 255.675C622.611 206.36 602.422 159.064 566.485 124.192C530.548 89.3203 481.807 69.7297 430.985 69.7297C380.162 69.7297 331.421 89.3203 295.484 124.192C259.547 159.064 239.358 206.36 239.358 255.675Z" fill="#CCCCCC"/>
</g>
<defs>
<clipPath id="clip0_881_5">
<rect width="862" height="884" fill="white"/>
</clipPath>
</defs>
</svg>
